<svg xmlns="http://www.w3.org/2000/svg" width="1144" height="835" viewBox="0 0 1144 835"><defs><linearGradient id="a" x1="525.683" x2="364.391" y1="408.671" y2="519.079" gradientUnits="userSpaceOnUse"><stop offset="0" stop-color="#3742b5"/><stop offset="1" stop-color="#00b7f9"/></linearGradient></defs><path fill="url(#a)" d="M395.689 463.942c4.696-33.666 12.078-67.322 16.115-101.142.374-3.128 1.635-7.294 4.29-9.182 2.288-.333 1.365-.446 3.5.421 3.909 4.577 4.3 21.292 5.205 28.035l7.707 55.401c1.511 11.241 3.59 29.537 6.078 40.354l.183.777c1.537-9.778 6.056-35.523 10.502-43.423 5.119-1.038 21.854-1.741 26.417.19 4.99 4.962 22.016 67.509 25.644 79.017 11.487-23.163 24.169-57.948 33.818-82.498 2.155-.286 3.435-.426 5.56-1.017 3.949 4.694 5.493 9.039 8.788 14.137l2.041.378c-.323.196-.603.417-.94.5-1.882 2.459-11.768 28.907-13.613 33.675a2830 2830 0 0 1-24.941 62.732c-1.411 3.343-3.633 9.673-6.895 11.003-3.369-.073-4.889-2.34-5.593-5.544-7.629-34.754-20.919-68.945-29.384-103.372-4.665-.246-9.719-.23-14.418-.306-.579 5.134-3.123 18.596-4.384 23.257-2.482 9.178-7.118 45.648-13.186 49.384-3.022.105-4.728-1.875-5.286-4.769-2.485-12.878-4.109-26.034-5.898-39.038a6724 6724 0 0 1-10.138-77.184 1697 1697 0 0 0-6.83 41.021c-2.668 17.984-5.046 39.324-9.43 57.101-.655 2.655-3.773 2.618-6.036 1.459-3.466-4.508-14.294-54.373-16.818-64.897-2.183 5.185-4.018 8.892-6.734 13.776-11.869.67-26.65.179-38.864.244-12.969 15.471-26.293.692-17.316-13.004 4.099-6.254 12.543-1.14 16.919 3.034q16.275-.115 32.55-.003c3.418-6.338 8.742-22.065 13.748-25.282 1.129-.033 1.625-.125 2.609.531 5.448 3.639 13.117 45.389 15.03 54.234" transform="scale(.96622 .96644)"/><path fill="#fcfbfd" d="M508.919 468.184c1.762.338 1.88.314 3.29 1.35.69 3.367-5.61 7.958-7.19 12.51-4.954 14.286-12.807 30.087-16.007 44.598-.342 1.553-.233.965-1.316 2.38-1.73-.79-1.805-.831-3.15-2.15-.177-1.42 5.412-11.623 6.42-14.072 5.346-12.99 10.93-25.933 15.985-39.04.263-.681-.457-1.594-.818-2.309.44-1.846 1.068-1.849 2.786-3.267"/><path fill="#fcfbfd" d="M507.246 450.65c2.499.154 3.314.245 4.991 1.842.436 2.853-4.004 7.2-5.414 10.882-5.808 15.161-12.652 28.603-17.455 44.222l-.531 1.058-1.136.362-.745-.608c-1.102-4.776 20.564-43.059 20.29-57.757"/><path fill="#4d39b6" d="M432.827 338.848c26.188-.49 54.088-.109 80.346-.037l98.64-.164c3.967 2.976 9.304 11.244 11.105 16.004.434 1.15-.648 2.293-1.433 3.052l-15.409.073-.007 10.531q-10.798-.083-21.595.03l-.185-8.547c-4.153 9.928-8.886 19.438-13.29 29.238-5.105 11.355-9.875 22.655-15.306 33.868-3.245-7.262-9.683-20.926-11.575-27.98 2.695-7.354 13.545-29.981 17.424-37.16l-30.866-.033-.118 12.147q-10.887.134-21.776.123c.254-4.618.267-9.154.31-13.775-7.753 16.138-14.923 34.28-22.768 50.569-2.907 6.034-7.019 18.573-10.531 23.375-1.797.96-1.081.705-3.262.64-2.021-1.88-5.356-14.16-6.411-17.616-2.359-.359-4.741-.593-7.113-.853 2.87-8.232 10.142-22.157 13.935-30.41 2.601-5.658 8.885-19.258 11.912-24.198-10.135-.1-20.41-.001-30.557.016l-.053 12.325-21.165.057c-.465-9.81.006-21.108-.252-31.275m13.76 8.866 26.295-.15c3.921-.014 11.044-.224 14.621.298 1.981.633 4.33 1.315 6.237 2.036 2.07-2.134 2.396-3.134 1.663-5.86-3.157-3.245-5.487-.581-7.798 1.757-12.233.469-27.072.367-39.428-.281-2.27-.119-3.506-1.758-6.485-2.247-2.88 1.092-3.464 3.08-2.377 5.844 1.74 1.656.883 1.173 3.329 1.735 2.375-.729 2.141-1.104 3.944-3.132m70.533-4.215c-2.17 1.396-2.1.857-2.824 2.794.86 2.138 2.23 2.749 4.373 3.531 2.094-2.178 1.78-1.275 2.193-3.705-.796-1.698-1.71-2.54-3.742-2.62m58.05 2.811c-6.054-.164-49.597-1.022-52.77.287 5.98 1.213 19.698.679 26.578.576 7.057-.105 17.858.401 24.591-.017 4.661.453 4.426 1.294 8.825 2.586 1.707-.5 1.1-.17 2.317-1.85.217-2.17.441-1.453-.475-3.197-3.583-1.665-4.954.845-9.067 1.615m-51.907 6.798c8.41-.084 42.442-1.74 48.22.67 1.662.693 3.088 1.294 4.911.959 1.64-1.326 1.132-.497 1.546-2.595-.535-1.698-.442-1.67-1.798-2.756l-1.252-.155c-7.974 4.481-26.618 1.341-35.781 2.176-3.11.284-19.08-1.438-19.9 1.122 1.797.618 2.11.55 4.054.58m-22.935-7.092c-.845 1.36-2.245 3.825-3.25 4.914-2.529.563-7.496.229-10.281.15-11.14-.098-23.772-.684-34.613 1.349 9.593.673 22.292.527 32.075.731 6.961.146 25.378.392 31.468-.62l.15-.66c-4.466-2.749-13.538 2.313-16.117-2.168 2.64-2.788 10.391-1.759 10.912-2.945-3.531-1.107-6.666-.826-10.344-.751"/><path fill="#fcfbfd" fill-opacity=".039" d="M573.569 347.156c-6.733.418-17.534-.088-24.591.017-6.88.103-20.598.637-26.578-.576 3.173-1.31 46.716-.45 52.77-.287z"/><path fill="#fcfbfd" fill-opacity=".008" d="M517.12 343.499c2.032.08 2.946.922 3.742 2.62-.413 2.43-.099 1.527-2.193 3.705-2.142-.782-3.513-1.393-4.373-3.531.723-1.937.655-1.398 2.824-2.794"/><defs><linearGradient id="b" x1="688.08" x2="610.754" y1="360.709" y2="440.36" gradientUnits="userSpaceOnUse"><stop offset="0" stop-color="#970a94"/><stop offset="1" stop-color="#5430b2"/></linearGradient></defs><path fill="url(#b)" d="m633.205 350.408 47.588.071c-.12 5.071-.283 10.205-.335 15.27-6.686 8.035-14.736 17.281-20.965 25.495 48.161 10.592 22.918 82.876-51.337 49.749 2.562-6.799 5.508-13.496 8.377-20.176 10.714 5.907 20.789 10.231 33.373 6.935 11.37-2.978 14.046-13.984 2.014-18.49-6.41-2.402-12.742-1.873-19.425-1.67l.155-13.68a242 242 0 0 1 20.185-23.85l-9.62.064c.813-.785 1.933-1.968 1.483-3.158-1.863-4.925-7.387-13.48-11.493-16.56" transform="scale(.96622 .96644)"/><defs><linearGradient id="c" x1="579.707" x2="366.223" y1="551.145" y2="510.931" gradientUnits="userSpaceOnUse"><stop offset="0" stop-color="#2861cc"/><stop offset="1" stop-color="#0da0e7"/></linearGradient></defs><path fill="url(#c)" d="M375.44 460.039c5.621 2.629 3.943 16.572 3.904 22.222l-.198 28.346c40.552 24.929 84.397 49.493 125.624 73.784l72.839-42.951c2.106.503 4.136.784 5.879 1.996l-.231.898-2.511 1.447c-25.06 14.315-50.652 30.797-75.973 44.378-27.435-14.991-55.953-32.88-83.316-48.435-11.702-6.653-37.957-21.161-47.753-28.342.353-8.817-.639-48.554 1.736-53.343" transform="scale(.96622 .96644)"/><path fill="#4d39b6" d="M531.399 383.102c6.815 12.36 14.257 34.504 20.371 48.403-3.533.02-17.104.33-19.774-.581.325-.08.596-.294.908-.484l-1.972-.365c-3.184-4.927-4.676-9.126-8.491-13.662-2.053.57-3.29.706-5.372.983 3.75-9.26 10-25.975 14.33-34.294"/><path fill="#4d39b6" d="M447.429 296.927c4.032-2.809 10.944-6.518 15.364-9.068l24.935-14.504a4386 4386 0 0 1 96.244 56.466c-2.008-.064-7.61-.172-9.142-.827-7.932-3.396-16.844-8.959-24.336-13.304l-40.834-23.766c-6.963-4.086-14.887-9.129-21.847-12.855l-37.8 22.13c-.596-2.487-.918-2.92-2.584-4.272"/><path fill="#2467ce" d="M447.429 296.927c1.666 1.352 1.988 1.785 2.584 4.271-1.79.758-3.316 1.583-4.973 2.578-26.074 15.647-52.705 30.507-78.705 46.26.201 6.724.077 13.565.108 20.304.019 3.974 1.66 15.893-3.664 16.827-2.314-2.13-1.284-34.308-1.365-39.994 9.102-5.813 19.806-11.72 29.252-17.3a2458 2458 0 0 1 56.763-32.946"/><path d="M593.295 448.773c8.816.192 12.196 10.554 15.914 17.611 2.264-4.127 8.868-17.857 13.296-18.2 4.759 2.936 3.362 25.098 1.27 29.33-1.195.758-2.325.404-3.807.238-1.307-1.138-.891-.95-1.225-3.202l.144-13.625c-8.629 16.349-10.18 17.002-19.335.417-.075 4.933 1.89 14.12-2.581 16.542-2.052-.133-1.509.191-2.935-.892-1.788-4.864-.934-22.263-.74-28.22"/><path d="M741.645 487.672c7.215-.967 13.833 4.139 14.736 11.366.901 7.228-4.26 13.805-11.49 14.643-7.142.829-13.615-4.257-14.506-11.395s4.134-13.66 11.26-14.614m-8.615 13.104a10.3 10.3 0 0 0 3.632 7.739 10.28 10.28 0 0 0 8.224 2.323c5.617-.868 9.467-6.13 8.595-11.75-.87-5.62-6.132-9.468-11.749-8.591a10.29 10.29 0 0 0-8.702 10.279"/><path d="M595.136 487.614c7.073-.148 12.971 5.378 13.287 12.45a13.025 13.025 0 0 1-23.938 7.685 13.04 13.04 0 0 1-.591-13.201 13.03 13.03 0 0 1 11.242-6.934m1.162 23.2c5.67-.552 9.803-5.622 9.204-11.29s-5.7-9.762-11.36-9.114c-5.594.639-9.626 5.67-9.033 11.271.592 5.602 5.586 9.678 11.19 9.133"/><path d="M614.563 487.757c6.425-.057 13.268-.53 18.854 3.21 7.692 5.15 5.68 12.625.882 18.786-6.948 4.407-11.36 3.812-19.512 3.825-.266-8.457-.179-17.331-.224-25.821m2.887 23.152c5.612.04 10.278.518 14.997-3.03 9.24-13.698-3.763-18.07-15.162-17.519z"/><path d="M543.532 448.936c2.3-.028 3.074-.062 5.366.449 3.308 2.557 11.373 22.921 13.681 28.433l-6.687.045c-1.482-3.48-1.365-5.141-5.17-5.856-3.353-.2-7.255-.117-10.656-.129l-2.236 6.033-6.837-.064c2.93-8.674 8.52-20.698 12.54-28.91m5.56 17.815.972-.643c.085-2.512-1.787-7.21-3.929-8.614-1.093 2.309-2.451 4.583-2.579 7.06 1.31 2.704 2.753 2.172 5.536 2.197"/><path d="M633.223 448.77c2.1.05 5.41-.326 5.878 2.736.88 5.755-3.339 27.633 10.27 19.425 3.45-2.08 2.781-16.492 2.45-21.806 2.018-.165 4.12-.58 5.907.164 1.22 2.062.79 2.688.812 5.378.04 5.084.712 11.983-1.416 16.578-5.48 11.653-21.568 9.193-24.325-2.982-.862-3.808-1.385-16.44.424-19.492"/><path d="M671.998 448.884c6.578-.446 8.718-.035 14.78 2.258-.11.22-1.509 2.974-1.509 2.974-3.32 3.253-9.956-.935-13.316.984-.763 1.638-.625.8-.403 2.613 4.164 4.675 14.125 2.79 15.936 8.811 2.606 8.664-5.297 10.893-11.234 12.031-5.383-.433-7.569-1.236-12.65-3.187.592-1.631 1.596-3.66 2.336-5.276 3.897 1.526 10.472 4.64 13.791.783-1.052-4.299-31.406-11.812-7.73-21.991"/><path d="M716.782 448.896c8.113-.732 10.325-.15 16.633 5.034l-4.438 4.2c-3.086-1.976-8.606-5.173-11.674-2.923-9.314 6.834-3.829 22.446 10.437 14.806 2.255-.424 3.918 1.843 5.317 3.32-4.96 4.142-10.377 6.404-16.87 4.47a15.32 15.32 0 0 1-9.177-7.605c-5.224-9.999 1.082-17.179 9.772-21.302"/><path d="M557.557 487.775c6.023-.1 14.07-.749 18.709 3.714 4.972 4.783-.233 10.313-3.967 13.426 1.717 2.155 4.152 5.177 4.536 7.893l-.605.66-1.534-.189-5.052-8.496-9.388-.091q.062 1.632.055 3.266c-.018 1.701-.219 4.072-1.463 5.305-2.279-3.6-1.41-20.317-1.291-25.488m2.745 14.621c5.593.084 8.231.392 13.448-1.729 4.16-11.18-5.218-10.468-13.422-10.381z"/><path d="M531.726 488.002c3.476-.122 8.499-.572 11.794.5 11.813 3.843 11.24 11.808.812 16.455-2.915.219-6.797.168-9.79.215.145 2.192.819 7.009-1.55 7.828l-.876-.712c-.92-4.97-.453-18.464-.39-24.286m14.76 13.494c7.433-10.612-4.324-10.636-11.79-11.11a64 64 0 0 0-.294 12.487c3.615-.108 8.858-.014 12.085-1.377"/><path d="M763.583 487.536c5.403 3.307 13.725 15.174 17.872 20.767-.125-5.72-.026-13.063.314-18.855.056-.956.192-.782 1.031-1.363l.741.75c1.168 5.821 1.008 19.242.393 25.269-6.042-4.076-13.474-15.122-17.996-21.26.08 3.582 1.28 18.772-1.491 20.56l-.75-.642c-1.233-6.434-.949-18.647-.114-25.226"/><path d="M693.192 449.25c2.17-.11 4.56-.015 6.75.019l.02 28.652-6.816-.03c-.111-9.45.022-19.169.046-28.64"/><path d="M566.62 449.232c2.582-.032 3.874-.235 5.826 1.162 1.55 4.27.777 22.091.695 27.554-2.216-.003-4.018.244-5.904-.794-1.625-2.925-.763-23.538-.616-27.922"/><path d="M644.207 487.575c7.412 4.091-2.79 18.773 7.334 22.852a7.6 7.6 0 0 0 6.146-.217c7.562-3.68 2.395-14.274 5.038-21.897l.835-.363c1.288.86.813.26 1.174 2.067q.135 1.934.224 3.872c.241 5.342.607 12.916-3.37 17.118-3.203 3.508-11.183 3.511-14.34-.046-4.802-5.41-3.279-16.683-3.04-23.386"/><path d="M680.407 487.976c4.44-.464 9.957-.868 12.342 3.765l-.378.697c-2.772.29-3.968-1.566-6.476-2.068-5.463-1.095-11.083 3.412-12.13 8.557a9.4 9.4 0 0 0 1.447 7.17c2.394 3.539 6.282 4.387 10.163 5.037 2.075-1.015 4.27-2.202 6.512-1.769l.295.754c-2.517 3.403-8.543 4.056-12.362 3.022a11.54 11.54 0 0 1-7.35-6.007 13.91 13.91 0 0 1-.568-11.248c1.799-4.664 4.362-6.08 8.505-7.91"/><path d="M695.009 488.064c5.092-.192 16.62-1.087 20.824 1l-.512.563c-3.44 1.133-4.482.968-8.152.771l-.054 12.933c.173 4.178.419 5.808-1.15 9.77l-.558-.032c-1.779-6.01-1.14-15.857-1.034-22.434-4.211.101-6.749.996-9.364-2.57"/><path d="M721.31 486.95c.53.331 1.53.948 1.738 1.5 1.905 5.08 1.165 20.93.49 25.533-4.295-2.464-2.525-21.985-2.228-27.033"/></svg>